<?xml version="1.0" encoding="UTF-8" standalone="no"?>
<!-- Created with Inkscape (http://www.inkscape.org/) -->

<svg
   xmlns:dc="http://purl.org/dc/elements/1.1/"
   xmlns:cc="http://creativecommons.org/ns#"
   xmlns:rdf="http://www.w3.org/1999/02/22-rdf-syntax-ns#"
   xmlns:svg="http://www.w3.org/2000/svg"
   xmlns="http://www.w3.org/2000/svg"
   xmlns:sodipodi="http://sodipodi.sourceforge.net/DTD/sodipodi-0.dtd"
   xmlns:inkscape="http://www.inkscape.org/namespaces/inkscape"
   width="83.954132mm"
   height="14.42776mm"
   viewBox="0 0 83.954133 14.42776"
   version="1.1"
   id="svg175"
   sodipodi:docname="Aercoustics-LogoWhite.svg"
   inkscape:version="0.92.2 (5c3e80d, 2017-08-06)">
  <defs
     id="defs169" />
  <sodipodi:namedview
     id="base"
     pagecolor="#ffffff"
     bordercolor="#666666"
     borderopacity="1.0"
     inkscape:pageopacity="0.0"
     inkscape:pageshadow="2"
     inkscape:zoom="3.959798"
     inkscape:cx="128.90002"
     inkscape:cy="1.4423802"
     inkscape:document-units="mm"
     inkscape:current-layer="layer1"
     showgrid="false"
     inkscape:pagecheckerboard="true"
     inkscape:window-width="1920"
     inkscape:window-height="1017"
     inkscape:window-x="-8"
     inkscape:window-y="-8"
     inkscape:window-maximized="1"
     showguides="false"
     fit-margin-top="0"
     fit-margin-left="0"
     fit-margin-right="0"
     fit-margin-bottom="0" />
  <metadata
     id="metadata172">
    <rdf:RDF>
      <cc:Work
         rdf:about="">
        <dc:format>image/svg+xml</dc:format>
        <dc:type
           rdf:resource="http://purl.org/dc/dcmitype/StillImage" />
        <dc:title></dc:title>
      </cc:Work>
    </rdf:RDF>
  </metadata>
  <g
     inkscape:label="Layer 1"
     inkscape:groupmode="layer"
     id="layer1"
     transform="translate(-63.856231,-139.35166)">
    <path
       inkscape:connector-curvature="0"
       id="path193"
       style="fill:#ffffff;fill-opacity:1;fill-rule:nonzero;stroke:none;stroke-width:0.03527778"
       d="m 71.907149,150.26833 c -0.582647,0.59034 -1.39199,0.95758 -2.286599,0.9598 -1.775178,-0.004 -3.211089,-1.44282 -3.214688,-3.21648 0.0011,-0.89489 0.37084,-1.70434 0.959274,-2.28699 l -1.083557,-1.08521 c -0.870233,0.86031 -1.409736,2.05161 -1.409736,3.3722 0,2.62378 2.125875,4.74818 4.748707,4.74941 1.320588,-10e-4 2.513118,-0.54074 3.373014,-1.40751 l -1.086415,-1.08522" />
    <path
       inkscape:connector-curvature="0"
       id="path195"
       style="fill:#ffffff;fill-opacity:1;fill-rule:nonzero;stroke:none;stroke-width:0.03527778"
       d="m 87.106897,146.50779 c -0.506165,-0.0847 -1.154783,-0.12816 -1.92719,-0.12816 -1.168576,0 -2.014149,0.46566 -2.014149,1.62031 0,0.83026 0.631578,1.32372 1.730975,1.32372 0.746195,0 1.661195,-0.38047 2.210364,-0.83093 z m 0,3.27808 v -0.63115 c -0.80271,0.63115 -1.576634,0.78772 -2.433602,0.78772 -1.113896,0 -2.283425,-0.40859 -2.283425,-2.01348 0,-1.01339 0.748277,-2.18225 2.958218,-2.18225 0.282928,0 1.33851,0.0406 1.758809,0.12718 v -0.67522 c 0,-1.19793 -0.80271,-1.4938 -2.069535,-1.4938 -0.74482,0 -1.294413,0.15529 -1.845628,0.50807 l -0.322015,-0.66213 c 0.718361,-0.35225 1.478879,-0.53566 2.365657,-0.53566 1.520789,0 2.632463,0.45092 2.632463,1.91548 v 4.85524 h -0.760942" />
    <path
       inkscape:connector-curvature="0"
       id="path197"
       style="fill:#ffffff;fill-opacity:1;fill-rule:nonzero;stroke:none;stroke-width:0.03527778"
       d="m 92.959057,143.69136 c -1.012472,0 -2.210506,0.57714 -2.450747,2.05535 h 4.589991 c -0.05644,-1.19641 -0.986366,-2.05535 -2.139244,-2.05535 z m -2.492375,2.77262 c 0.08537,2.08371 1.631597,2.78789 2.535414,2.78789 1.308453,0 2.081389,-0.81632 2.363611,-1.12585 l 0.478367,0.63334 c -0.858309,0.78948 -1.591381,1.18308 -2.841978,1.18308 -1.576917,0 -3.352447,-1.04197 -3.352447,-3.46329 0,-2.39395 1.689805,-3.464 3.294238,-3.464 1.760009,0 2.99967,0.95776 2.99967,3.44883 h -5.476875" />
    <path
       inkscape:connector-curvature="0"
       id="path199"
       style="fill:#ffffff;fill-opacity:1;fill-rule:nonzero;stroke:none;stroke-width:0.03527778"
       d="m 101.42643,144.24119 c -0.26811,-0.26828 -0.64805,-0.42234 -1.12501,-0.42234 -0.986366,0 -1.90253,0.95677 -1.90253,1.84351 v 4.12351 h -0.759883 v -6.58731 h 0.759883 v 1.05505 c 0.676981,-0.9707 1.43757,-1.20854 1.98579,-1.20854 0.70379,0 1.05692,0.21015 1.43757,0.46273 l -0.39582,0.73339" />
    <path
       inkscape:connector-curvature="0"
       id="path201"
       style="fill:#ffffff;fill-opacity:1;fill-rule:nonzero;stroke:none;stroke-width:0.03527778"
       d="m 105.4107,149.94244 c -1.87325,0 -3.25155,-1.39475 -3.25155,-3.50534 0,-2.01426 1.26753,-3.42195 3.2646,-3.42195 0.87207,0 1.83163,0.3248 2.40877,1.08522 l -0.50729,0.54737 c -0.63253,-0.71727 -1.47779,-0.91395 -2.0701,-0.91395 -1.32398,0 -2.26695,1.05657 -2.26695,2.75883 0,1.69058 1.18286,2.74617 2.39395,2.74617 0.87347,0 1.67463,-0.39466 2.19604,-0.97067 l 0.42368,0.56208 c -0.77505,0.91433 -1.60514,1.11224 -2.59115,1.11224" />
    <path
       inkscape:connector-curvature="0"
       id="path203"
       style="fill:#ffffff;fill-opacity:1;fill-rule:nonzero;stroke:none;stroke-width:0.03527778"
       d="m 112.20344,143.66243 c -1.35114,0 -2.61832,0.87436 -2.61832,2.80155 0,1.71922 1.04175,2.83062 2.63243,2.83062 1.5053,0 2.57739,-1.1114 2.57739,-2.83062 0,-1.92719 -1.26859,-2.80155 -2.5915,-2.80155 z m -0.0145,6.28001 c -1.65911,0 -3.3916,-1.12727 -3.3916,-3.47846 0,-1.80111 1.19627,-3.44883 3.3916,-3.44883 2.19675,0 3.39337,1.64772 3.39337,3.44883 0,2.38015 -1.78858,3.47846 -3.39337,3.47846" />
    <path
       inkscape:connector-curvature="0"
       id="path205"
       style="fill:#ffffff;fill-opacity:1;fill-rule:nonzero;stroke:none;stroke-width:0.03527778"
       d="m 121.49525,149.78587 v -1.01286 c -0.29422,0.46578 -1.11195,1.16943 -1.95509,1.16943 -1.5487,0 -2.49308,-0.80219 -2.49308,-2.21054 v -4.53334 h 0.76058 v 4.16609 c 0,1.71704 1.11161,1.87414 1.78647,1.87414 0.78917,0 1.91629,-0.76275 1.91629,-2.15375 v -3.88648 h 0.74577 v 6.58731 h -0.76094" />
    <path
       inkscape:connector-curvature="0"
       id="path207"
       style="fill:#ffffff;fill-opacity:1;fill-rule:nonzero;stroke:none;stroke-width:0.03527778"
       d="m 125.82913,149.94244 c -0.74719,0 -1.4351,-0.14126 -2.02707,-0.53623 l 0.28293,-0.67507 c 0.53481,0.35055 1.22379,0.56346 1.74414,0.56346 0.60501,0 1.43757,-0.26734 1.43757,-1.07005 0,-0.87298 -0.73202,-1.0837 -1.31093,-1.33795 l -0.68932,-0.30892 c -0.50483,-0.21086 -1.39277,-0.63253 -1.39277,-1.82894 0,-1.07213 0.91581,-1.73359 2.02847,-1.73359 0.67345,0 1.32292,0.1137 1.87043,0.43642 l -0.30939,0.62054 c -0.41945,-0.24017 -1.04104,-0.42348 -1.51976,-0.42348 -0.86149,0 -1.31128,0.45174 -1.31128,1.01424 0,0.77378 0.52317,1.04154 1.14194,1.32292 l 0.67487,0.31076 c 0.72002,0.31005 1.60655,0.63211 1.60655,1.80273 0,1.26711 -0.93028,1.84316 -2.22638,1.84316" />
    <path
       inkscape:connector-curvature="0"
       id="path209"
       style="fill:#ffffff;fill-opacity:1;fill-rule:nonzero;stroke:none;stroke-width:0.03527778"
       d="m 132.03978,149.88578 c -0.78775,0 -1.91417,-0.323 -1.91417,-2.18197 v -3.88496 h -1.00119 v -0.62029 h 1.00119 v -2.46352 h 0.78916 v 2.46352 h 1.37795 v 0.62029 h -1.37795 v 3.74424 c 0,1.57716 0.7874,1.64691 1.33491,1.64691 0.17004,0 0.43709,-0.0421 0.508,-0.0697 v 0.63335 c -0.21202,0.0848 -0.49071,0.11218 -0.7179,0.11218" />
    <path
       inkscape:connector-curvature="0"
       id="path211"
       style="fill:#ffffff;fill-opacity:1;fill-rule:nonzero;stroke:none;stroke-width:0.03527778"
       d="m 134.2337,149.78587 v -6.58731 h 0.76094 v 6.58731 z m 0,-8.13399 v -1.64829 h 0.76094 v 1.64829 h -0.76094" />
    <path
       inkscape:connector-curvature="0"
       id="path213"
       style="fill:#ffffff;fill-opacity:1;fill-rule:nonzero;stroke:none;stroke-width:0.03527778"
       d="m 139.74127,149.94244 c -1.86937,0 -3.25296,-1.39475 -3.25296,-3.50534 0,-2.01426 1.27035,-3.42195 3.26778,-3.42195 0.87206,0 1.83056,0.3248 2.40594,1.08522 l -0.50447,0.54737 c -0.63394,-0.71727 -1.47955,-0.91395 -2.07081,-0.91395 -1.32256,0 -2.26554,1.05657 -2.26554,2.75883 0,1.69058 1.18252,2.74617 2.3936,2.74617 0.87207,0 1.67464,-0.39466 2.19569,-0.97067 l 0.42333,0.56208 c -0.77611,0.91433 -1.60514,1.11224 -2.59256,1.11224" />
    <path
       inkscape:connector-curvature="0"
       id="path215"
       style="fill:#ffffff;fill-opacity:1;fill-rule:nonzero;stroke:none;stroke-width:0.03527778"
       d="m 145.5868,149.94244 c -0.74754,0 -1.43792,-0.14126 -2.02706,-0.53623 l 0.2794,-0.67507 c 0.53516,0.35055 1.22449,0.56346 1.74766,0.56346 0.60572,0 1.43474,-0.26734 1.43474,-1.07005 0,-0.87298 -0.73307,-1.0837 -1.30915,-1.33795 l -0.68968,-0.30892 c -0.50695,-0.21086 -1.39348,-0.63253 -1.39348,-1.82894 0,-1.07213 0.91476,-1.73359 2.02706,-1.73359 0.67663,0 1.32363,0.1137 1.87255,0.43642 l -0.31009,0.62054 c -0.42087,-0.24017 -1.04317,-0.42348 -1.51977,-0.42348 -0.85972,0 -1.31022,0.45174 -1.31022,1.01424 0,0.77378 0.52141,1.04154 1.13948,1.32292 l 0.67592,0.31076 c 0.71967,0.31005 1.6062,0.63211 1.6062,1.80273 0,1.26711 -0.92993,1.84316 -2.22356,1.84316" />
    <path
       inkscape:connector-curvature="0"
       id="path191"
       style="fill:#ffffff;fill-opacity:1;fill-rule:nonzero;stroke:none;stroke-width:0.03527778"
       d="m 73.852507,151.84948 c 1.050749,-1.03491 1.7012,-2.47082 1.704375,-4.06315 -0.0066,-3.15309 -2.558062,-5.70452 -5.711719,-5.70879 -1.591204,0.002 -3.025457,0.65401 -4.063118,1.70339 l -1.925814,-1.92857 c 1.527281,-1.5427 3.6449,-2.49908 5.988932,-2.5007 4.658043,0.002 8.433329,3.77596 8.434564,8.43467 -0.0012,2.34421 -0.95758,4.46363 -2.49936,5.99309 l -1.92786,-1.92994" />
  </g>
</svg>
